<?xml version="1.0" standalone="no"?>
<!DOCTYPE svg PUBLIC "-//W3C//DTD SVG 20010904//EN"
 "http://www.w3.org/TR/2001/REC-SVG-20010904/DTD/svg10.dtd">
<svg version="1.0" xmlns="http://www.w3.org/2000/svg"
 width="512.000000pt" height="512.000000pt" viewBox="0 0 512.000000 512.000000"
 preserveAspectRatio="xMidYMid meet">

<g transform="translate(0.000000,512.000000) scale(0.100000,-0.100000)"
fill="#000000" stroke="none">
<path d="M85 4891 c-73 -23 -105 -95 -71 -159 8 -15 572 -583 1253 -1263 844
-843 1246 -1238 1263 -1241 72 -12 37 -45 1314 1230 670 669 1231 1235 1247
1256 32 43 37 82 14 125 -19 38 -76 64 -118 56 -26 -6 -271 -246 -1229 -1203
l-1198 -1197 -1198 1198 c-658 658 -1205 1197 -1214 1197 -9 0 -22 2 -30 4 -7
2 -22 1 -33 -3z"/>
<path d="M40 2861 c-33 -33 -45 -69 -36 -108 9 -37 2466 -2499 2515 -2520 20
-9 45 -12 65 -8 24 6 290 266 1269 1243 709 709 1244 1251 1253 1271 43 89
-60 185 -149 140 -12 -6 -556 -545 -1209 -1198 l-1188 -1186 -1182 1181 c-651
650 -1194 1189 -1208 1198 -40 26 -97 21 -130 -13z"/>
</g>
</svg>
